<?xml version="1.0" encoding="utf-8"?>
<!-- Generator: Adobe Illustrator 25.2.0, SVG Export Plug-In . SVG Version: 6.00 Build 0)  -->
<svg version="1.1" id="Layer_1" xmlns="http://www.w3.org/2000/svg" xmlns:xlink="http://www.w3.org/1999/xlink" x="0px" y="0px"
	 viewBox="0 0 216 288" style="enable-background:new 0 0 216 288;" xml:space="preserve">
<g>
	<path d="M77.08,72.92h0.88l1.02-4.81H78.1l0.16-0.72h2.57l-0.16,0.72h-0.89l-1.02,4.81h0.89l-0.16,0.72h-2.57L77.08,72.92z"/>
	<path d="M84.65,67.39h1l1.3,5.27l0.04-0.02l0.28-1.62l0.77-3.62h0.8l-1.33,6.25h-1l-1.31-5.27l-0.02,0.02l-0.28,1.63l-0.77,3.61
		h-0.8L84.65,67.39z"/>
	<path d="M93.4,68.11h-1.73l0.16-0.72h4.22l-0.16,0.72H94.2l-1.18,5.53h-0.8L93.4,68.11z"/>
	<path d="M99.42,67.39h3.9l-0.16,0.72h-3.09l-0.4,1.87h2.55l-0.16,0.72h-2.55l-0.47,2.22h3.09l-0.16,0.72h-3.9L99.42,67.39z"/>
	<path d="M106.52,67.39h2.12c1.04,0,1.76,0.49,1.51,1.7c-0.17,0.77-0.84,1.52-1.64,1.75l1,2.53l-0.79,0.42l-1-2.83h-1.16L106,73.64
		h-0.8L106.52,67.39z M107.77,70.25c0.79,0,1.39-0.44,1.55-1.15c0.12-0.56-0.13-0.98-0.85-0.98h-1.29l-0.46,2.13H107.77z"/>
	<path d="M113.08,72.92h0.88l1.02-4.81h-0.88l0.16-0.72h2.57l-0.16,0.72h-0.89l-1.02,4.81h0.89l-0.16,0.72h-2.57L113.08,72.92z"/>
	<path d="M124.28,70.52c-0.11,0.5-0.72,3.23-2.9,3.23c-1.01,0-2.06-0.72-1.54-3.23c0.53-2.49,1.88-3.24,2.91-3.24
		C123.75,67.28,124.82,68,124.28,70.52z M120.68,70.52c-0.19,0.91-0.36,2.47,0.85,2.47c1.21,0,1.72-1.56,1.91-2.47
		c0.2-0.92,0.36-2.48-0.85-2.48C121.38,68.04,120.89,69.6,120.68,70.52z"/>
</g>
</svg>
